<svg xmlns="http://www.w3.org/2000/svg" width="32" height="29.927" viewBox="0 0 32 29.927">
  <path id="motor-ico" d="M32.5,27.208a8.809,8.809,0,0,1-2.073,3.229h0l-20.547-2.9-.005,0A13.891,13.891,0,0,1,14.389.509c.181,0,.362,0,.542.01l-.006-.01s9.161.1,14.615,6.073h-17.2a5.772,5.772,0,0,0-1.983,11.193ZM11.331,15.242l.056.023,4.165,1.775,3.3-7.748H12.345A3.062,3.062,0,0,0,11.3,15.23Zm7.941,3.383,3.975-9.333H21.061l-3.639,8.545ZM29.917,9.292h-5.2l-4.2,9.865L31.863,23.99c1.066-6.07.413-11-1.946-14.7" transform="translate(-0.5 -0.509)"/>
</svg>
