<svg xmlns="http://www.w3.org/2000/svg" width="32" height="24.399" viewBox="0 0 32 24.399">
  <path id="nfl-ball-ico" d="M1.144,15.545a5.464,5.464,0,0,1,0-6.691C3.515,5.792,9.68,0,16.036,0c6.324,0,12.385,5.794,14.97,9.218a4.969,4.969,0,0,1,0,5.963C28.421,18.605,22.36,24.4,16.036,24.4,9.68,24.4,3.515,18.608,1.144,15.545Zm14.892,6.294c3.186,0,6.418-1.918,8.96-4.066V6.626c-2.542-2.149-5.774-4.067-8.96-4.067-3.08,0-6.342,1.8-8.96,3.926V17.914C9.694,20.037,12.956,21.839,16.036,21.839ZM3.168,10.421a2.9,2.9,0,0,0,0,3.557A23.677,23.677,0,0,0,5.8,16.806V7.593A23.676,23.676,0,0,0,3.168,10.421Zm23.108,6.2a25.847,25.847,0,0,0,2.687-2.981,2.4,2.4,0,0,0,0-2.879,25.845,25.845,0,0,0-2.687-2.981ZM20.032,15.44V12.88h-3.39v2.56a.64.64,0,1,1-1.28,0V12.88h-3.39v2.56a.64.64,0,1,1-1.28,0V9.04a.64.64,0,1,1,1.28,0V11.6h3.39V9.04a.64.64,0,1,1,1.28,0V11.6h3.39V9.04a.64.64,0,0,1,1.28,0v6.4a.64.64,0,1,1-1.28,0Z" transform="translate(0)" fill="#1f2024"/>
</svg>
