<svg xmlns="http://www.w3.org/2000/svg" width="32" height="25.333" viewBox="0 0 32 25.333">
  <path id="rugby-ico" d="M27.186,3.6A18.318,18.318,0,0,0,16,0,18.318,18.318,0,0,0,4.814,3.6,11.456,11.456,0,0,0,0,12.667a11.456,11.456,0,0,0,4.814,9.069A18.318,18.318,0,0,0,16,25.333a18.318,18.318,0,0,0,11.186-3.6A11.456,11.456,0,0,0,32,12.667,11.456,11.456,0,0,0,27.186,3.6M16,2.667c7.175,0,13.044,4.273,13.322,9.6H2.678C2.956,6.94,8.825,2.667,16,2.667m0,20c-7.175,0-13.044-4.273-13.322-9.6H29.322c-.278,5.331-6.147,9.6-13.322,9.6"/>
</svg>
