<svg xmlns="http://www.w3.org/2000/svg" width="32" height="32" viewBox="0 0 32 32">
  <path id="tennis-ico" d="M16,0A15.992,15.992,0,0,0,4.658,27.274l0,.009h.006A16,16,0,1,0,16,0M7.817,26.52,7.9,26.5a8.347,8.347,0,0,1-.212-1.37l-1.308.092a13.429,13.429,0,0,1-1.341-1.641H7.667V21.914H4.333v.534a13.332,13.332,0,1,1,25-6.449,13.251,13.251,0,0,1-1.667,6.449V21.4q0-.165,0-.329l-3.332.093c0,.078,0,.155,0,.235v1.385h3.143a13.408,13.408,0,0,1-1.167,1.667H24.333v.087a8.427,8.427,0,0,1-.1,1.312l.639.1a13.306,13.306,0,0,1-17.052.573m1.374-14.6,1.947,2.706a8.4,8.4,0,0,0-1.056.9L7.715,13.18a11.762,11.762,0,0,1,1.476-1.26M6.468,14.666,9.19,16.59a8.363,8.363,0,0,0-.7,1.2l-3-1.446a11.7,11.7,0,0,1,.985-1.674m6.2-4.455.952,3.194a8.286,8.286,0,0,0-1.29.505l-1.472-2.991a11.621,11.621,0,0,1,1.809-.709M4.789,18.157l3.2.924a8.3,8.3,0,0,0-.271,1.359l-3.312-.377a11.654,11.654,0,0,1,.38-1.905m22.66.982-3.271.641a8.282,8.282,0,0,0-.379-1.332l3.118-1.179a11.633,11.633,0,0,1,.533,1.869M26.08,15.516,23.2,17.2a8.391,8.391,0,0,0-.8-1.136l2.56-2.134a11.728,11.728,0,0,1,1.115,1.588M23.6,12.545,21.43,15.073a8.393,8.393,0,0,0-1.124-.815l1.725-2.852A11.724,11.724,0,0,1,23.6,12.545M18.429,9.981a11.619,11.619,0,0,1,1.862.561l-1.227,3.1a8.282,8.282,0,0,0-1.326-.4ZM16.5,9.738l-.141,3.33a8.491,8.491,0,0,0-1.389.055l-.406-3.309A11.849,11.849,0,0,1,16.5,9.738" transform="translate(32) rotate(90)" fill="#1f2024"/>
</svg>
