<svg xmlns="http://www.w3.org/2000/svg" width="30.233" height="32" viewBox="0 0 30.233 32">
  <path id="wnba-ico" d="M30.233,14.135H25.182a10.65,10.65,0,1,0-20.131,0H0v2.748H1.777L4.81,19.916V32H6.184V29.1a3.317,3.317,0,0,1,1.318.665,4.292,4.292,0,0,0,2.8.987,4.293,4.293,0,0,0,2.8-.987,3.117,3.117,0,0,1,4.011,0,4.478,4.478,0,0,0,5.609,0,3.318,3.318,0,0,1,1.319-.665V32h1.374V19.916l3.033-3.033h1.777Zm-15.117-5.4a8.343,8.343,0,0,0,6.9-3.2,8.542,8.542,0,0,1,1.664,4.426H6.555A8.542,8.542,0,0,1,8.219,5.538a8.343,8.343,0,0,0,6.9,3.2m5.97-4.256a6.976,6.976,0,0,1-5.97,2.882A6.976,6.976,0,0,1,9.146,4.482a8.573,8.573,0,0,1,11.941,0M6.556,11.338H23.677a8.59,8.59,0,0,1-.709,2.8H7.265a8.59,8.59,0,0,1-.709-2.8m-.372,9.513a3.317,3.317,0,0,1,1.318.665,4.292,4.292,0,0,0,2.8.987,4.293,4.293,0,0,0,2.8-.987,3.117,3.117,0,0,1,4.011,0,4.478,4.478,0,0,0,5.609,0,3.318,3.318,0,0,1,1.319-.665V23.58a4.413,4.413,0,0,0-2.117.941,3.117,3.117,0,0,1-4.011,0,4.478,4.478,0,0,0-5.609,0,2.974,2.974,0,0,1-2.005.731A2.975,2.975,0,0,1,8.3,24.521a4.413,4.413,0,0,0-2.117-.941Zm15.748,7.793a3.117,3.117,0,0,1-4.011,0,4.478,4.478,0,0,0-5.609,0,2.974,2.974,0,0,1-2.005.731A2.975,2.975,0,0,1,8.3,28.644,4.413,4.413,0,0,0,6.184,27.7V24.974a3.317,3.317,0,0,1,1.318.665,4.292,4.292,0,0,0,2.8.987,4.293,4.293,0,0,0,2.8-.987,3.117,3.117,0,0,1,4.011,0,4.478,4.478,0,0,0,5.609,0,3.318,3.318,0,0,1,1.319-.665V27.7a4.413,4.413,0,0,0-2.117.941m2.117-9.3v.11a4.413,4.413,0,0,0-2.117.941,3.117,3.117,0,0,1-4.011,0,4.478,4.478,0,0,0-5.609,0,2.974,2.974,0,0,1-2.005.731A2.975,2.975,0,0,1,8.3,20.4a4.413,4.413,0,0,0-2.117-.941v-.11L3.72,16.883H26.513Z" fill="#1f2024"/>
</svg>
