<svg id="Component_14_1" data-name="Component 14 – 1" xmlns="http://www.w3.org/2000/svg" width="176" height="49.811" viewBox="0 0 176 49.811">
  <path id="Path_1" data-name="Path 1" d="M38.961,29.763a17.814,17.814,0,0,0-2.426.55V19.924H26.566v36.61a38.869,38.869,0,0,0,5.581,1.634,31.686,31.686,0,0,0,6.782.665,20.748,20.748,0,0,0,6.3-.919,13.693,13.693,0,0,0,4.984-2.789,12.4,12.4,0,0,0,3.279-4.733,17.871,17.871,0,0,0,1.169-6.769,17.318,17.318,0,0,0-.857-5.508,13.139,13.139,0,0,0-2.476-4.479,11.488,11.488,0,0,0-4.022-2.983,12.938,12.938,0,0,0-5.411-1.09A19.094,19.094,0,0,0,38.961,29.763ZM83.381,37.2v-7h3.934v-7.06h9.974V30.2h4.228l2.462,7h-6.69V48.445a6.438,6.438,0,0,0,.312,2.239,1.332,1.332,0,0,0,1.4.8,4.427,4.427,0,0,0,1.963-.462,9.544,9.544,0,0,0,1.683-1.034l2.563,6.086a14.7,14.7,0,0,1-4.072,2.008,17.139,17.139,0,0,1-5.1.688,11.388,11.388,0,0,1-4.131-.66A6.668,6.668,0,0,1,89.2,56.248a7.056,7.056,0,0,1-1.454-2.927,16.02,16.02,0,0,1-.426-3.842V37.2Zm-9.116,3.56a5.746,5.746,0,0,0-1.339-3.532,3.679,3.679,0,0,0-2.82-1.293,4.062,4.062,0,0,0-2.994,1.32,5.723,5.723,0,0,0-1.509,3.5Zm-7.1,9.267A5.47,5.47,0,0,1,65.54,46.09H83.607q-.055-8.436-3.733-12.481a12.7,12.7,0,0,0-9.886-4.045,15.8,15.8,0,0,0-5.613.974A12.353,12.353,0,0,0,59.9,33.411a13.451,13.451,0,0,0-2.962,4.617,16.72,16.72,0,0,0-1.082,6.229A16.318,16.318,0,0,0,56.993,50.6a12.876,12.876,0,0,0,3.082,4.529,12.674,12.674,0,0,0,4.53,2.729,16.565,16.565,0,0,0,5.553.919,22.169,22.169,0,0,0,4.416-.4,14.106,14.106,0,0,0,6.158-2.84,13.583,13.583,0,0,0,2.082-2.1l-6.1-4.82a7.805,7.805,0,0,1-2.481,2.124,6.939,6.939,0,0,1-3.219.688A5.416,5.416,0,0,1,67.168,50.024ZM36.535,51.082a9.617,9.617,0,0,0,1.229.263,10.262,10.262,0,0,0,1.394.083,5.282,5.282,0,0,0,4.159-1.805q1.6-1.808,1.6-5.541,0-3.615-1.564-5.337a5.134,5.134,0,0,0-3.962-1.718,7.118,7.118,0,0,0-1.481.143,11.591,11.591,0,0,0-1.371.369Z" transform="translate(-26.566 -19.924)" fill="#fff" fill-rule="evenodd"/>
  <path id="Path_2" data-name="Path 2" d="M101.036,23.124,113.362,58.2h7.58l4.329-14.692L129.659,58.2h7.635l9.864-28h-10.2l-4.1,14.863L128.576,30.2h-6.5L117.8,45.061l-7.126-21.937ZM162,56.017l.8,2.184h8.378V40.526q0-5.624-3.251-8.293t-8.718-2.669a16.778,16.778,0,0,0-11.854,4.3l4.443,4.991a12.829,12.829,0,0,1,2.82-1.722,7.733,7.733,0,0,1,3.109-.628,4.18,4.18,0,0,1,2.563.8,2.94,2.94,0,0,1,1.082,2.526v.688c-.871.037-1.834.107-2.88.2s-2.174.24-3.389.434a16.722,16.722,0,0,0-3.76.974,11.5,11.5,0,0,0-3.109,1.778,7.874,7.874,0,0,0-2.1,2.636,8.055,8.055,0,0,0-.77,3.62,8.666,8.666,0,0,0,.683,3.555,7.819,7.819,0,0,0,1.908,2.669,8.2,8.2,0,0,0,2.88,1.695,10.97,10.97,0,0,0,3.59.572,12.067,12.067,0,0,0,4.5-.776A9.447,9.447,0,0,0,162,56.017ZM175.608,62.1a9.784,9.784,0,0,1-1.88-.8l-2.509,6.769a20.893,20.893,0,0,0,3.475,1.21,16.392,16.392,0,0,0,3.99.457,11.911,11.911,0,0,0,5.957-1.436,9.751,9.751,0,0,0,4.016-4.936L202.566,30.2H192.308l-5.585,16.35-5.64-16.35H170.252l11.8,26.794-1.6,3.62a3.091,3.091,0,0,1-1.114,1.431,3.287,3.287,0,0,1-1.738.4A6.594,6.594,0,0,1,175.608,62.1ZM161.374,45.517c-.569.037-1.142.088-1.71.143s-1.156.143-1.765.259a3.832,3.832,0,0,0-2.508,1.233,3.318,3.318,0,0,0-.743,2.1,2.6,2.6,0,0,0,.83,1.981,3.237,3.237,0,0,0,2.307.771,5.354,5.354,0,0,0,1.967-.342,6.548,6.548,0,0,0,1.623-.919Z" transform="translate(-26.566 -19.924)" fill="#acc441" fill-rule="evenodd"/>
</svg>
