<svg xmlns="http://www.w3.org/2000/svg" width="75" height="15.234" viewBox="0 0 75 15.234">
  <path id="Path_10524" data-name="Path 10524" d="M264.026,192.29a3.927,3.927,0,0,1-1.876-.387,2.684,2.684,0,0,1-1.083-1.057,3.192,3.192,0,0,1-.386-.973,6.171,6.171,0,0,1-.093-1.183,12.44,12.44,0,0,1,.146-1.715c.112-.771.251-1.54.416-2.3q.334-1.59.594-2.669t.511-1.8a5.788,5.788,0,0,1,.532-1.172,4.573,4.573,0,0,1,.635-.8,3.859,3.859,0,0,1,1.323-.889,4.9,4.9,0,0,1,1.782-.283,3.908,3.908,0,0,1,1.875.387,2.705,2.705,0,0,1,1.084,1.057,3.188,3.188,0,0,1,.385.973,6.169,6.169,0,0,1,.094,1.183,12.605,12.605,0,0,1-.146,1.715q-.17,1.157-.416,2.3-.335,1.611-.594,2.677t-.511,1.79a5.934,5.934,0,0,1-.531,1.172,4.586,4.586,0,0,1-.636.8,3.863,3.863,0,0,1-1.323.89A4.926,4.926,0,0,1,264.026,192.29Zm7.982-15.066H274.8l-2.959,14.9H269.05l2.959-14.9Zm4.094,0h2.272l1.5,7.554,1.4-7.554h2.792l-2.958,14.9h-2.168l-1.521-7.533-1.48,7.533h-2.792l2.959-14.9Zm10.934,2.512h-2.375l.5-2.511H292.7l-.5,2.511h-2.375l-2.46,12.387h-2.791l2.457-12.387Zm7.6,12.555a4.994,4.994,0,0,1-1.7-.242,3,3,0,0,1-1.115-.7,2.665,2.665,0,0,1-.75-1.967,9.069,9.069,0,0,1,.146-1.507h2.791c-.027.182-.047.342-.062.482s-.02.25-.021.377a1.042,1.042,0,0,0,.229.753,1.053,1.053,0,0,0,.3.209.987.987,0,0,0,.426.084,1.709,1.709,0,0,0,.522-.074,1.092,1.092,0,0,0,.438-.281,1.553,1.553,0,0,0,.344-.524,5.468,5.468,0,0,0,.218-.774,4.839,4.839,0,0,0,.084-.618c.013-.2.021-.366.021-.491a1.011,1.011,0,0,0-.25-.711,2.384,2.384,0,0,0-.73-.5l-1.438-.69a2.769,2.769,0,0,1-1.24-1.036,2.688,2.688,0,0,1-.364-1.392,8.449,8.449,0,0,1,.042-.889,7.6,7.6,0,0,1,.145-.889,8.958,8.958,0,0,1,.459-1.517,3.647,3.647,0,0,1,.791-1.224,3.822,3.822,0,0,1,1.188-.816,4.457,4.457,0,0,1,1.772-.293,4.8,4.8,0,0,1,1.687.241,3.051,3.051,0,0,1,1.084.7,2.1,2.1,0,0,1,.5.847,3.435,3.435,0,0,1,.167,1.078q0,.313-.021.69a6.192,6.192,0,0,1-.105.816h-2.791c.041-.209.068-.387.083-.533s.021-.276.021-.387a1.03,1.03,0,0,0-.209-.734.918.918,0,0,0-.229-.156.83.83,0,0,0-.374-.074,1.07,1.07,0,0,0-.793.315,1.353,1.353,0,0,0-.3.5,3.556,3.556,0,0,0-.157.544,4.818,4.818,0,0,0-.1.921,1.1,1.1,0,0,0,.75,1.045l1.188.566a4.4,4.4,0,0,1,1.636,1.15,2.5,2.5,0,0,1,.468,1.57c0,.293-.014.606-.041.941a9.851,9.851,0,0,1-.147,1.047q-.105.551-.26,1.088a6.8,6.8,0,0,1-.292.816,3.852,3.852,0,0,1-.343.627,3.6,3.6,0,0,1-1.719,1.34A5.783,5.783,0,0,1,294.635,192.291Zm-33.811-13.246a2.308,2.308,0,0,0-.584-.962,2.654,2.654,0,0,0-1.052-.66,5.159,5.159,0,0,0-1.594-.2h-3.771l-2.96,14.9h2.793l.783-3.98c.174-1.175-1.667-1.419-1.667-1.419H256.1a6.258,6.258,0,0,0,1.687-.209,3.247,3.247,0,0,0,1.334-.743,4.364,4.364,0,0,0,1-1.455,11.248,11.248,0,0,0,.709-2.342,7.691,7.691,0,0,0,.125-.879q.042-.481.042-.9a3.907,3.907,0,0,0-.167-1.151Zm-2.7,2.365q-.053.334-.093.564a5.238,5.238,0,0,1-.584,1.674,1.314,1.314,0,0,1-1.209.565h-1.02l.9-4.478h.958a1.147,1.147,0,0,1,.865.262,1.162,1.162,0,0,1,.24.806,3.814,3.814,0,0,1-.053.606h0Zm6.172,8.369a1.1,1.1,0,0,0,.5-.105,1.558,1.558,0,0,0,.4-.292,1.954,1.954,0,0,0,.342-.5,5.149,5.149,0,0,0,.313-.858c.105-.363.219-.815.345-1.36s.263-1.206.416-1.987q.1-.544.209-1.109c.069-.377.127-.739.177-1.089s.09-.676.125-.983a7.38,7.38,0,0,0,.052-.795,1.5,1.5,0,0,0-.2-.826.794.794,0,0,0-.719-.3,1.1,1.1,0,0,0-.5.105,1.515,1.515,0,0,0-.4.293,1.907,1.907,0,0,0-.344.5,5.116,5.116,0,0,0-.313.858q-.156.544-.344,1.36t-.416,1.988q-.105.545-.209,1.108t-.187,1.088q-.078.491-.125.984-.042.46-.042.795a1.5,1.5,0,0,0,.2.827.794.794,0,0,0,.718.3Zm47.3-12.555-2.959,14.9h6.5l.5-2.511h-3.71l.751-3.808h3.188l.5-2.511h-3.188l.709-3.558h6.3l-2.459,12.387h2.792l2.46-12.386h2.374l.5-2.511H311.6Zm-2.59,1.005a2.166,2.166,0,0,0-1.073-.785,5.313,5.313,0,0,0-1.657-.22h-3.814l-2.959,14.9h4.085a8.062,8.062,0,0,0,1.9-.178,3,3,0,0,0,1.292-.7,3.47,3.47,0,0,0,.49-.565,4.508,4.508,0,0,0,.406-.732,7.524,7.524,0,0,0,.345-.952c.1-.355.2-.771.3-1.245a6.462,6.462,0,0,0,.135-.868q.031-.387.032-.7a2.211,2.211,0,0,0-.375-1.319,1.917,1.917,0,0,0-.251-.281,1.616,1.616,0,0,0-.333-.241,2.542,2.542,0,0,0,.438-.231,3.52,3.52,0,0,0,.354-.271,2.522,2.522,0,0,0,.73-1.047,9.92,9.92,0,0,0,.354-1.3,6.126,6.126,0,0,0,.135-.816q.031-.355.031-.586a3.029,3.029,0,0,0-.562-1.863Zm-3.459,9.415a6.349,6.349,0,0,1-.24.9,1.91,1.91,0,0,1-.334.607,1.2,1.2,0,0,1-.5.345,2.128,2.128,0,0,1-.76.116H302.8l.531-2.661c.173-1.176-1.667-1.42-1.667-1.42h2.867a1.232,1.232,0,0,1,.875.262,1.141,1.141,0,0,1,.271.847,4.954,4.954,0,0,1-.125,1.005Zm1.062-6.151a2.512,2.512,0,0,1-.541,1.256,1.6,1.6,0,0,1-1.209.4h-.792l.689-3.411h.874a1.137,1.137,0,0,1,.865.251,1.051,1.051,0,0,1,.219.712A3.877,3.877,0,0,1,306.615,181.493Z" transform="translate(-250.863 -177.057)" fill="#fff"/>
</svg>
