<svg xmlns="http://www.w3.org/2000/svg" width="21.19" height="21.186" viewBox="0 0 21.19 21.186">
  <path id="instagram" d="M10.592,7.717a5.432,5.432,0,1,0,5.432,5.432A5.423,5.423,0,0,0,10.592,7.717Zm0,8.963a3.531,3.531,0,1,1,3.531-3.531,3.538,3.538,0,0,1-3.531,3.531Zm6.921-9.185a1.267,1.267,0,1,1-1.267-1.267A1.264,1.264,0,0,1,17.512,7.495Zm3.6,1.286A6.27,6.27,0,0,0,19.4,4.342,6.311,6.311,0,0,0,14.96,2.63c-1.749-.1-6.992-.1-8.741,0A6.3,6.3,0,0,0,1.78,4.337,6.29,6.29,0,0,0,.068,8.776c-.1,1.749-.1,6.992,0,8.741A6.27,6.27,0,0,0,1.78,21.956a6.319,6.319,0,0,0,4.439,1.711c1.749.1,6.992.1,8.741,0A6.27,6.27,0,0,0,19.4,21.956a6.311,6.311,0,0,0,1.711-4.439C21.209,15.768,21.209,10.53,21.11,8.781ZM18.85,19.394a3.575,3.575,0,0,1-2.014,2.014c-1.395.553-4.7.425-6.245.425s-4.855.123-6.245-.425a3.575,3.575,0,0,1-2.014-2.014c-.553-1.395-.425-4.7-.425-6.245S1.784,8.294,2.333,6.9A3.575,3.575,0,0,1,4.347,4.89c1.395-.553,4.7-.425,6.245-.425s4.855-.123,6.245.425A3.575,3.575,0,0,1,18.85,6.9c.553,1.395.425,4.7.425,6.245S19.4,18,18.85,19.394Z" transform="translate(0.006 -2.556)" fill="#fff"/>
</svg>
