<svg id="Component_52_1" data-name="Component 52 – 1" xmlns="http://www.w3.org/2000/svg" width="442" height="59.524" viewBox="0 0 442 59.524">
  <path id="Path_842" data-name="Path 842" d="M102.141,202.826l2.723-3.419a12.611,12.611,0,0,0,8.612,3.546c3.23,0,4.939-1.583,4.939-3.483,0-2.153-1.9-2.913-6.079-3.863-5.383-1.266-9.182-2.85-9.182-7.726,0-4.559,3.863-7.915,9.435-7.915a14.523,14.523,0,0,1,9.942,3.673l-2.6,3.483a11.78,11.78,0,0,0-7.536-3.1c-2.66,0-4.433,1.583-4.433,3.419,0,2.153,1.963,2.913,6.079,3.863,5.446,1.2,9.119,2.976,9.119,7.726,0,4.686-3.609,7.979-9.815,7.979A15.551,15.551,0,0,1,102.141,202.826Z" transform="translate(-29.699 -164.135)" fill="#fff"/>
  <path id="Path_843" data-name="Path 843" d="M148.051,196.747c0,6.079-3.8,10.322-9.055,10.322a7.974,7.974,0,0,1-6.839-3.609v9.689h-4.623V186.868h4.623v3.1A8.053,8.053,0,0,1,139,186.362C144.188,186.489,148.051,190.731,148.051,196.747Zm-4.623,0c0-3.673-2.343-6.332-5.7-6.332-3.293,0-5.572,2.66-5.572,6.332s2.28,6.4,5.572,6.4S143.428,200.483,143.428,196.747Z" transform="translate(-29.699 -164.135)" fill="#fff"/>
  <path id="Path_844" data-name="Path 844" d="M151.217,196.747a10.578,10.578,0,1,1,10.575,10.322A10.543,10.543,0,0,1,151.217,196.747Zm16.528,0a6.027,6.027,0,1,0-6.016,6.4A6.25,6.25,0,0,0,167.745,196.747Z" transform="translate(-29.699 -164.135)" fill="#fff"/>
  <path id="Path_845" data-name="Path 845" d="M188.2,186.489v3.989c-4.243,0-7.029,2.533-7.029,6.269v9.942h-4.623V187h4.623v3.8A7.365,7.365,0,0,1,188.2,186.489Z" transform="translate(-29.699 -164.135)" fill="#fff"/>
  <path id="Path_846" data-name="Path 846" d="M202.763,205.549a6.7,6.7,0,0,1-4.179,1.583,5.386,5.386,0,0,1-5.572-5.7V190.795h-2.85v-3.863h2.85v-5.383h4.559v5.383H202v3.863H197.57v10.068a2.062,2.062,0,0,0,1.963,2.28,3.053,3.053,0,0,0,1.963-.7Z" transform="translate(-29.699 -164.135)" fill="#fff"/>
  <path id="Path_847" data-name="Path 847" d="M206.372,180.473H220.05c4.813,0,8.169,2.786,8.169,6.586a6.3,6.3,0,0,1-3.609,5.826c3.04,1.33,4.813,3.8,4.813,6.649,0,4.179-3.673,7.092-8.865,7.092H206.372Zm12.095,10.385c1.773,0,3.1-1.013,3.1-2.47,0-1.393-1.266-2.406-3.1-2.406h-5.636v4.813l5.636.063Zm1.013,10.258c1.9,0,3.293-1.077,3.293-2.66,0-1.52-1.393-2.66-3.293-2.66h-6.586v5.256h6.586Z" transform="translate(-29.699 -164.135)" fill="#fff"/>
  <path id="Path_848" data-name="Path 848" d="M246.773,200.23l3.8,3.863a12.363,12.363,0,0,1-8.105,3.04c-6.079,0-10.575-4.306-10.575-10.385a9.928,9.928,0,0,1,10.322-10.258c6.269,0,9.942,4.559,9.942,12.095H238.1a4.392,4.392,0,0,0,4.243,3.293A7.23,7.23,0,0,0,246.773,200.23Zm-8.675-5.573h7.979a3.866,3.866,0,0,0-3.8-2.976A4.411,4.411,0,0,0,238.1,194.657Z" transform="translate(-29.699 -164.135)" fill="#fff"/>
  <path id="Path_849" data-name="Path 849" d="M267.8,205.232a7.737,7.737,0,0,1-4.813,1.9,6.069,6.069,0,0,1-6.269-6.332v-8.675h-2.6V187h2.6v-5.383h6.206V187h4.053v5.129H262.92v7.536a1.922,1.922,0,0,0,1.773,2.153,2.8,2.8,0,0,0,1.836-.633Z" transform="translate(-29.699 -164.135)" fill="#fff"/>
  <path id="Path_850" data-name="Path 850" d="M283.374,205.232a7.737,7.737,0,0,1-4.813,1.9,6.069,6.069,0,0,1-6.269-6.332v-8.675h-2.6V187h2.6v-5.383H278.5V187h4.053v5.129H278.5v7.536a1.922,1.922,0,0,0,1.773,2.153,2.8,2.8,0,0,0,1.836-.633Z" transform="translate(-29.699 -164.135)" fill="#fff"/>
  <path id="Path_851" data-name="Path 851" d="M286.413,181.106a3.434,3.434,0,0,1,3.419-3.356,3.388,3.388,0,0,1,0,6.776A3.446,3.446,0,0,1,286.413,181.106Zm.19,5.826h6.459v19.694H286.6Z" transform="translate(-29.699 -164.135)" fill="#fff"/>
  <path id="Path_852" data-name="Path 852" d="M316.936,194.087v12.538H310.73V195.544a3.424,3.424,0,1,0-6.839-.253l-.063-.127v11.462h-6.459V186.932h6.459v2.28a7.073,7.073,0,0,1,5.826-2.723C313.9,186.489,316.936,189.655,316.936,194.087Z" transform="translate(-29.699 -164.135)" fill="#fff"/>
  <path id="Path_853" data-name="Path 853" d="M341.7,186.932v17.6c0,5.066-4.5,8.675-10.892,8.675a15.1,15.1,0,0,1-8.929-2.66l2.153-4.5a9.6,9.6,0,0,0,5.762,1.773c3.229,0,5.446-1.456,5.446-3.609v-1.9a8.453,8.453,0,0,1-6.269,2.85c-4.876,0-8.675-3.863-8.675-9.372s3.8-9.372,8.675-9.372a8.276,8.276,0,0,1,6.269,2.85v-2.406H341.7v.063Zm-6.522,8.865a4.184,4.184,0,1,0-4.179,3.989A3.909,3.909,0,0,0,335.173,195.8Z" transform="translate(-29.699 -164.135)" fill="#fff"/>
  <path id="Path_854" data-name="Path 854" d="M363.352,202.826H352.967l-1.52,3.8H344.1l10.385-26.216h7.346l10.385,26.216h-7.346Zm-2.026-5.129-3.166-8.042-3.166,8.042Z" transform="translate(-29.699 -164.135)" fill="#fff"/>
  <path id="Path_855" data-name="Path 855" d="M375.067,180.473h6.522v26.216h-6.522Z" transform="translate(-29.699 -164.135)" fill="#fff"/>
  <path id="Path_856" data-name="Path 856" d="M386.4,204.029a2.935,2.935,0,0,1,3.04-2.913,2.977,2.977,0,1,1-3.04,2.913Z" transform="translate(-29.699 -164.135)" fill="#fff"/>
  <path id="Path_857" data-name="Path 857" d="M396.154,196.747a10.543,10.543,0,0,1,10.575-10.322,10.216,10.216,0,0,1,7.472,3.23l-3.1,2.723a6,6,0,0,0-4.369-1.963,6.378,6.378,0,0,0,0,12.728,6.054,6.054,0,0,0,4.5-2.09l3.1,2.723a10.353,10.353,0,0,1-7.662,3.293A10.529,10.529,0,0,1,396.154,196.747Z" transform="translate(-29.699 -164.135)" fill="#fff"/>
  <path id="Path_858" data-name="Path 858" d="M416.544,196.747a10.578,10.578,0,1,1,10.575,10.322A10.543,10.543,0,0,1,416.544,196.747Zm16.591,0a6.027,6.027,0,1,0-6.016,6.4A6.25,6.25,0,0,0,433.135,196.747Z" transform="translate(-29.699 -164.135)" fill="#fff"/>
  <path id="Path_859" data-name="Path 859" d="M471.7,194.087v12.538H467.14V194.847c0-2.6-1.583-4.433-3.8-4.433a4.043,4.043,0,0,0-4.306,4.116v12.095h-4.559V194.847c0-2.6-1.583-4.433-3.863-4.433a4.043,4.043,0,0,0-4.306,4.116v12.095h-4.623V186.932h4.623v2.66a6.06,6.06,0,0,1,5.509-3.1,6.816,6.816,0,0,1,6.269,3.736c.95-2.28,3.419-3.736,6.4-3.736C468.6,186.489,471.7,189.655,471.7,194.087Z" transform="translate(-29.699 -164.135)" fill="#fff"/>
  <path id="Path_860" data-name="Path 860" d="M82.448,164.135H36.474a6.783,6.783,0,0,0-6.776,6.776v45.973a6.783,6.783,0,0,0,6.776,6.776H82.448a6.783,6.783,0,0,0,6.776-6.776V170.911A6.783,6.783,0,0,0,82.448,164.135ZM65.6,212.895l-24.38.19,16.844-19.25L46.48,193.9l18.554-21.213c5.066,0,9.182,4.686,9.182,10.512a10.778,10.778,0,0,1-1.14,5,14.622,14.622,0,0,1,4.559,10.828C77.7,206.689,72.252,212.895,65.6,212.895Zm7.536-24.633a11.14,11.14,0,0,0-7.536-3.04l-7.472,8.549,6.9-.063A8.984,8.984,0,0,0,73.139,188.262Z" transform="translate(-29.699 -164.135)" fill="#fff"/>
  <path id="Path_861" data-name="Path 861" d="M73.139,188.262a9.152,9.152,0,0,1-8.105,5.509l-6.9.063,7.472-8.549A10.79,10.79,0,0,1,73.139,188.262Z" transform="translate(-29.699 -164.135)" fill="#fff"/>
  <path id="Path_862" data-name="Path 862" d="M73.139,188.262a9.152,9.152,0,0,1-8.105,5.509l-6.9.063,7.472-8.549A10.79,10.79,0,0,1,73.139,188.262Z" transform="translate(-29.699 -164.135)" fill="#fff"/>
  <path id="Path_863" data-name="Path 863" d="M57.941,193.834l6.522-.063a9.154,9.154,0,0,0,8.675-5.509,11.36,11.36,0,0,0-7.6-3.1Z" transform="translate(-29.699 -164.135)" fill="#fff"/>
</svg>
