<?xml version="1.0" encoding="utf-8"?>
<!-- Generator: Adobe Illustrator 28.0.0, SVG Export Plug-In . SVG Version: 6.00 Build 0)  -->
<svg version="1.1" id="Layer_1" xmlns="http://www.w3.org/2000/svg" xmlns:xlink="http://www.w3.org/1999/xlink" x="0px" y="0px"
	 viewBox="0 0 409.8 70" style="enable-background:new 0 0 409.8 70;" xml:space="preserve">
<style type="text/css">
	.st0{fill:#00263B;}
	.st1{fill:#47A1DA;}
	.st2{fill:#FFFFFF;}
</style>
<g>
	<g>
		<g>
			<path class="st0" d="M90.2,25.1c0,1.1,0.9,2.1,2.1,2.1h16.4c3.4,0,6.2,2.8,6.2,6.2c0,3.4-2.8,6.2-6.2,6.2H86.1v-4.1h22.6
				c1.1,0,2.1-0.9,2.1-2c0-1.1-0.9-2.1-2.1-2.1H92.3c-3.4,0-6.2-2.8-6.2-6.2c0-3.4,2.8-6.2,6.2-6.2h22.6v4.1H92.3
				C91.1,23.1,90.2,24,90.2,25.1z"/>
			<path class="st0" d="M132.1,39.5h-10.3v6.2h-4.1V23.1h14.3c3.4,0,6.2,2.8,6.2,6.1v4.1C138.3,36.8,135.5,39.5,132.1,39.5z
				 M121.8,35.4h10.3c1.1,0,2.1-0.9,2.1-2.1v-4.1c0-1.1-0.9-2-2.1-2h-10.3V35.4z"/>
			<path class="st0" d="M161.7,29.2v4.1c0,3.4-2.8,6.1-6.2,6.1h-8.2c-3.4,0-6.2-2.7-6.2-6.1v-4.1c0-3.4,2.8-6.1,6.2-6.1h8.2
				C159,23.1,161.7,25.8,161.7,29.2z M155.6,27.2h-8.2c-1.1,0-2.1,0.9-2.1,2v4.1c0,1.1,0.9,2.1,2.1,2.1h8.2c1.1,0,2.1-0.9,2.1-2.1
				v-4.1C157.6,28.1,156.7,27.2,155.6,27.2z"/>
			<path class="st0" d="M170.8,23.1h14.4v4.1h-14.4c-1.1,0-2,0.9-2,2v10.3h-4.1V29.2C164.7,25.8,167.4,23.1,170.8,23.1z"/>
			<path class="st0" d="M198.4,23.1h10.3v4.1h-10.3v6.2c0,1.1,0.9,2.1,2.1,2.1h8.2v4.1h-8.2c-3.4,0-6.2-2.7-6.2-6.1v-6.2h-6.1v-4.1
				h6.1V19h4.1V23.1z"/>
			<path class="st0" d="M234.1,39.5h-22.6V19h22.6c3.4,0,6.1,2.8,6.1,6.2c0,1.6-0.6,3-1.6,4.1c1,1.1,1.6,2.5,1.6,4.1
				C240.3,36.7,237.5,39.5,234.1,39.5z M215.7,27.2h18.5c1.1,0,2.1-0.9,2.1-2.1c0-1.1-0.9-2.1-2.1-2.1h-18.5V27.2z M215.7,35.3h18.5
				c1.1,0,2.1-0.9,2.1-2c0-1.1-0.9-2.1-2.1-2.1h-18.5V35.3z"/>
			<path class="st0" d="M243.2,33.4v-4.1c0-3.4,2.8-6.1,6.2-6.1h14.4v4.1h-14.4c-1.1,0-2,0.9-2,2h16.4v4.1h-16.4
				c0,1.1,0.9,2.1,2,2.1h14.4v4.1h-14.4C246,39.5,243.2,36.8,243.2,33.4z"/>
			<path class="st0" d="M276.9,23.1h10.3v4.1h-10.3v6.2c0,1.1,0.9,2.1,2.1,2.1h8.2v4.1H279c-3.4,0-6.2-2.7-6.2-6.1v-6.2h-6.1v-4.1
				h6.1V19h4.1V23.1z"/>
			<path class="st0" d="M300.4,23.1h10.3v4.1h-10.3v6.2c0,1.1,0.9,2.1,2.1,2.1h8.2v4.1h-8.2c-3.4,0-6.2-2.7-6.2-6.1v-6.2h-6.1v-4.1
				h6.1V19h4.1V23.1z"/>
			<path class="st0" d="M317.7,39.5h-4.1V23h4.1V39.5z"/>
			<path class="st0" d="M324.7,39.5h-4.1V23.1H335c3.4,0,6.2,2.8,6.2,6.1v10.3H337V29.2c0-1.1-0.9-2-2.1-2h-10.3V39.5z"/>
			<path class="st0" d="M350.3,23.1h14.3v16.4c0,3.4-2.8,6.2-6.1,6.2h-14.4v-4.1h14.4c1.1,0,2.1-0.9,2.1-2.1h-10.3
				c-3.4,0-6.2-2.7-6.2-6.1v-4.1C344.1,25.8,346.9,23.1,350.3,23.1z M348.2,33.4c0,1.1,0.9,2.1,2.1,2.1h10.3v-8.2h-10.3
				c-1.1,0-2.1,0.9-2.1,2V33.4z"/>
			<path class="st0" d="M398.5,39.5h-4.7l-3.7-6.2H376l-3.7,6.2h-4.7L378.6,21c0.7-1.2,2-2,3.5-2h1.8c1.5,0,2.8,0.8,3.5,2
				L398.5,39.5z M387.6,29.2l-3.7-6.2h-1.8l-3.7,6.2H387.6z"/>
			<path class="st0" d="M400,19h4.1v20.5H400V19z"/>
		</g>
		<path class="st1" d="M406.4,53H89.3c-0.7,0-1.2,0.6-1.2,1.2v0c0,0.7,0.6,1.2,1.2,1.2h317.1c0.7,0,1.2-0.6,1.2-1.2v0
			C407.7,53.5,407.1,53,406.4,53z"/>
	</g>
	<g>
		<path class="st1" d="M60.2,70H9.5c-5.3,0-9.6-4.3-9.6-9.6V9.6C-0.1,4.3,4.2,0,9.5,0h50.7c5.3,0,9.6,4.3,9.6,9.6v50.7
			C69.9,65.7,65.6,70,60.2,70z"/>
		<path class="st2" d="M48.2,23.2c0.8-6.9-10.1-11.8-10.1-11.8L18,34.5l12.9-0.1L12.4,55.3l27.4-0.2c0,0,10.2,0.1,11.8-10.9
			c0,0,3.3-14.8-10.5-13C41.1,31.2,47.6,28.4,48.2,23.2z"/>
	</g>
</g>
</svg>
