<svg xmlns="http://www.w3.org/2000/svg" xmlns:xlink="http://www.w3.org/1999/xlink" width="70" height="64" viewBox="0 0 70 64">
  <defs>
    <clipPath id="clip-path">
      <rect id="Rectangle_8341" data-name="Rectangle 8341" width="70" height="64" transform="translate(1020 4013)" fill="#fff" stroke="#707070" stroke-width="1"/>
    </clipPath>
  </defs>
  <g id="Mask_Group_199" data-name="Mask Group 199" transform="translate(-1020 -4013)" clip-path="url(#clip-path)">
    <path id="Path_94" data-name="Path 94" d="M24.438-.062h15A5.337,5.337,0,0,1,43,3.313q.214,7.994.313,16a4.056,4.056,0,0,1,.75-.187q7.063-.125,14.125,0a4.788,4.788,0,0,1,4.188,4.313q.125,19.562,0,39.125a1.827,1.827,0,0,1-.937,1.375h-59a2.049,2.049,0,0,1-.937-1.25q-.125-11.625,0-23.25a4.788,4.788,0,0,1,4.188-4.312q7.063-.125,14.125,0a4.056,4.056,0,0,1,.75.188q.156-15.75.188-31.5A5.271,5.271,0,0,1,24.438-.062Zm.75,3.25q6.75-.031,13.5.063a1.957,1.957,0,0,1,1.063.938q.28,28.244.188,56.5h-16Q23.906,32.75,24,4.813A1.893,1.893,0,0,1,25.188,3.188Zm19,19.25q6.938-.031,13.875.063a3.194,3.194,0,0,1,.813.688q.28,18.739.188,37.5H43.188q-.031-18.563.063-37.125A2.5,2.5,0,0,1,44.188,22.438Zm-38.375,16q6.938-.031,13.875.063a1.957,1.957,0,0,1,.938,1.063q.094,10.562.063,21.125H4.813q-.031-10.563.063-21.125A2.483,2.483,0,0,1,5.813,38.438Z" transform="translate(1023.063 4013.063)" fill="#02263c" fill-rule="evenodd" opacity="0.972"/>
  </g>
</svg>
