<svg xmlns="http://www.w3.org/2000/svg" xmlns:xlink="http://www.w3.org/1999/xlink" width="70" height="64" viewBox="0 0 70 64">
  <defs>
    <clipPath id="clip-path">
      <rect id="Rectangle_8342" data-name="Rectangle 8342" width="70" height="64" transform="translate(1493 4013)" fill="#fff" stroke="#707070" stroke-width="1"/>
    </clipPath>
  </defs>
  <g id="Mask_Group_200" data-name="Mask Group 200" transform="translate(-1493 -4013)" clip-path="url(#clip-path)">
    <path id="Path_95" data-name="Path 95" d="M30.313-.062h3a6.831,6.831,0,0,1,5.375,4.438l5,.125a1.326,1.326,0,0,1,1.188.813q.094,1.5.063,3,3.438-.031,6.875.063a6.47,6.47,0,0,1,5.313,5.938q.125,22.063,0,44.125A5.561,5.561,0,0,1,54.313,63a10.984,10.984,0,0,1-2.25.938H11.813a7.736,7.736,0,0,1-3.937-2.375A5.93,5.93,0,0,1,6.75,58.438q-.125-22.063,0-44.125a6.47,6.47,0,0,1,5.313-5.937q3.437-.094,6.875-.062-.031-1.5.063-3A1.326,1.326,0,0,1,20.188,4.5q2.44-.031,4.875-.187A7.009,7.009,0,0,1,30.313-.062Zm1,2.875a4.547,4.547,0,0,1,4.813,4,3.194,3.194,0,0,0,.813.688q2.437.094,4.875.063v6H22.063v-6q2.313.031,4.625-.062l.5-.25q.656-1.34,1.313-2.687A5.3,5.3,0,0,1,31.313,2.813Zm-18.75,8.625h6.375q-.031,2.126.063,4.25a1.332,1.332,0,0,0,.938.938q5.958.217,11.938.188,6.04.028,12.063-.187a1.951,1.951,0,0,0,.938-1.062q.094-2.062.063-4.125,3.188-.031,6.375.063a3.361,3.361,0,0,1,2.563,2.563q.125,22.375,0,44.75a3.321,3.321,0,0,1-2.437,1.938q-19.5.125-39,0A3.321,3.321,0,0,1,10,58.813q-.125-22.438,0-44.875A3.683,3.683,0,0,1,12.563,11.438Z" transform="translate(1496.063 4013.063)" fill="#02263c" fill-rule="evenodd" opacity="0.954"/>
    <path id="Path_96" data-name="Path 96" d="M24.313,21.313q2.695-.213,2.063,2.375-2.469,2.532-5.062,4.938A13.859,13.859,0,0,1,19.563,30a2.214,2.214,0,0,1-1.375-.125A40.994,40.994,0,0,1,14.5,25.938q-.439-2.623,2.188-2.062,1.154,1.185,2.375,2.313Z" transform="translate(1496.063 4013.063)" fill="#02263c" fill-rule="evenodd" opacity="0.943"/>
    <path id="Path_97" data-name="Path 97" d="M29.813,25.063q9.375-.031,18.75.063a1.684,1.684,0,0,1,.688,2.438,1.76,1.76,0,0,1-.812.563q-9.25.125-18.5,0A1.642,1.642,0,0,1,29,25.813,6.733,6.733,0,0,1,29.813,25.063Z" transform="translate(1496.063 4013.063)" fill="#02263c" fill-rule="evenodd" opacity="0.965"/>
    <path id="Path_98" data-name="Path 98" d="M24.563,33.438q2.549.078,1.813,2.5Q23.15,39.1,19.813,42.125a1.75,1.75,0,0,1-1.875-.25L14.5,38.188a1.555,1.555,0,0,1,1.375-2.25,1.611,1.611,0,0,1,1.063.313q1.1,1.07,2.125,2.188,2.411-2.238,4.75-4.562A3.521,3.521,0,0,1,24.563,33.438Z" transform="translate(1496.063 4013.063)" fill="#02263c" fill-rule="evenodd" opacity="0.942"/>
    <path id="Path_99" data-name="Path 99" d="M30.063,37.188q9.125-.031,18.25.063a1.587,1.587,0,0,1-.25,3.125q-8.875.125-17.75,0-2.1-.544-1.187-2.562A2.355,2.355,0,0,1,30.063,37.188Z" transform="translate(1496.063 4013.063)" fill="#02263c" fill-rule="evenodd" opacity="0.934"/>
    <path id="Path_100" data-name="Path 100" d="M24.313,45.688q2.695-.213,2.063,2.375L19.938,54.25a2.2,2.2,0,0,1-1.75,0A40.994,40.994,0,0,1,14.5,50.313q-.439-2.623,2.188-2.062,1.159,1.19,2.375,2.313Z" transform="translate(1496.063 4013.063)" fill="#02263c" fill-rule="evenodd" opacity="0.943"/>
    <path id="Path_101" data-name="Path 101" d="M29.813,49.438q9.375-.031,18.75.063a1.684,1.684,0,0,1,.688,2.438,1.76,1.76,0,0,1-.812.563q-9.25.125-18.5,0A1.642,1.642,0,0,1,29,50.188,6.733,6.733,0,0,1,29.813,49.438Z" transform="translate(1496.063 4013.063)" fill="#02263c" fill-rule="evenodd" opacity="0.967"/>
  </g>
</svg>
