<svg xmlns="http://www.w3.org/2000/svg" width="106.841" height="103.48" viewBox="0 0 106.841 103.48">
  <g id="ribon-yellow" transform="translate(-1015 -409.999)">
    <path id="Path_4" data-name="Path 4" d="M17.272,12.827H0A19.22,19.22,0,0,1,2.494,3.7,13.986,13.986,0,0,1,5.654,0H17.272Z" transform="translate(1015 410)" fill="#d6ab49"/>
    <path id="Path_6" data-name="Path 6" d="M240.319,12.827h17.272A19.22,19.22,0,0,0,255.1,3.7,13.986,13.986,0,0,0,251.938,0H240.319Z" transform="translate(864.249 410)" fill="#d6ab49"/>
    <path id="Path_5" data-name="Path 5" d="M109.417,0H16.182a13.979,13.979,0,0,1,3.159,3.706,19.054,19.054,0,0,1,2.48,8.725c.007.144.011.277.015.4h.1v36.24c0,8.3-.377,16.6-.377,24.907l1.691,1.2L61.088,102l2.08,1.475,40.45-28.095,2.03-1.41V12.828c.063,0,.047-.33.05-.4a19.057,19.057,0,0,1,2.48-8.718A13.979,13.979,0,0,1,111.338,0Z" transform="translate(1004.849 409.999)" fill="#fcc852"/>
  </g>
</svg>
