<svg xmlns="http://www.w3.org/2000/svg" xmlns:xlink="http://www.w3.org/1999/xlink" width="24" height="24" viewBox="0 0 24 24">
  <defs>
    <clipPath id="clip-path">
      <rect id="Rectangle_357" data-name="Rectangle 357" width="24" height="24" transform="translate(16 137)" fill="none" stroke="#000" stroke-width="1"/>
    </clipPath>
  </defs>
  <g id="Mask_Group_173" data-name="Mask Group 173" transform="translate(-16 -137)" clip-path="url(#clip-path)">
    <path id="football" d="M12.271,1.259a17.634,17.634,0,0,0-1.914.58A13.718,13.718,0,0,0,3.272,7.615a16.834,16.834,0,0,0-1.943,4.73l11.785,11.78a17.634,17.634,0,0,0,1.914-.58,13.718,13.718,0,0,0,7.085-5.776,16.7,16.7,0,0,0,1.939-4.725Zm12.281,8.919a25.711,25.711,0,0,0-.382-7.754A1.591,1.591,0,0,0,22.876,1.18,30.51,30.51,0,0,0,15.161.788ZM10.218,24.591.833,15.206a25.711,25.711,0,0,0,.382,7.754A1.591,1.591,0,0,0,2.509,24.2a30.51,30.51,0,0,0,7.714.392ZM12.925,8.166a.8.8,0,0,1,1.12,0l3.173,3.173a.792.792,0,0,1-1.12,1.12L12.925,9.286A.8.8,0,0,1,12.925,8.166Zm-2.38,2.38a.8.8,0,0,1,1.12,0l3.173,3.173a.792.792,0,0,1-1.12,1.12l-3.173-3.173A.8.8,0,0,1,10.545,10.545Zm-2.38,2.38a.8.8,0,0,1,1.12,0L12.459,16.1a.792.792,0,0,1-1.12,1.12L8.166,14.046A.8.8,0,0,1,8.166,12.925Z" transform="translate(15.308 136.308)" fill="#02263c"/>
  </g>
</svg>
