<svg xmlns="http://www.w3.org/2000/svg" xmlns:xlink="http://www.w3.org/1999/xlink" width="30" height="30" viewBox="0 0 30 30">
  <defs>
    <clipPath id="clip-path">
      <rect id="Rectangle_8343" data-name="Rectangle 8343" width="30" height="30" transform="translate(60 283)" fill="#fff" stroke="#707070" stroke-width="1"/>
    </clipPath>
  </defs>
  <g id="Mask_Group_201" data-name="Mask Group 201" transform="translate(-60 -283)" clip-path="url(#clip-path)">
    <path id="Path_102" data-name="Path 102" d="M21.3-.029h2.813a12.889,12.889,0,0,1,3.223.674,3.337,3.337,0,0,1,2.139,2.607A23.674,23.674,0,0,1,25.9,20.479a21.68,21.68,0,0,1-11.924,8.467,28.5,28.5,0,0,1-5.449,1.025H5.713a11,11,0,0,1-3.34-.791A2.931,2.931,0,0,1,.762,27.451a11.936,11.936,0,0,1-.7-3.574A24.481,24.481,0,0,1,4.219,8.994,21.134,21.134,0,0,1,14.971,1.23,27.961,27.961,0,0,1,21.3-.029Zm1.23,1.758a13.086,13.086,0,0,1,4.16.615,1.913,1.913,0,0,1,.674.5,8.264,8.264,0,0,1,.7,2.988,22.074,22.074,0,0,1-.234,4.629,5.347,5.347,0,0,1-.234,1L18.369,2.227A25.67,25.67,0,0,1,22.529,1.729Zm-6.328,1Q21.672,8.064,27.07,13.506A18.973,18.973,0,0,1,15.322,26.543q-1.056.4-2.139.732Q7.914,22.093,2.7,16.846A18.785,18.785,0,0,1,13.389,3.809Q14.786,3.221,16.2,2.725ZM2.139,18.9q4.465,4.421,8.906,8.877a20.538,20.538,0,0,1-5.391.352,7.644,7.644,0,0,1-2.7-.7,1.956,1.956,0,0,1-.615-.967,14.286,14.286,0,0,1-.469-5.1Q1.965,20.122,2.139,18.9Z" transform="translate(60.069 283.029)" fill="#fff" fill-rule="evenodd" opacity="0.965"/>
    <path id="Path_103" data-name="Path 103" d="M17.373,8.643a1.612,1.612,0,0,1,.879.146q.368.382.762.732a6.327,6.327,0,0,0,.527-.5.943.943,0,0,1,1.436.381,1.313,1.313,0,0,1-.117.879l-.557.557a9.3,9.3,0,0,1,.85.908q.32,1.261-.967,1.318a1.209,1.209,0,0,1-.352-.117l-.762-.762a3.813,3.813,0,0,0-.937.85q.412.426.791.879.353,1.4-1.084,1.318a3.329,3.329,0,0,1-1-.82.073.073,0,0,0-.117,0l-.879.879a4.977,4.977,0,0,1,.85.967q.216,1.337-1.143,1.2l-.234-.117q-.368-.382-.762-.732a9.342,9.342,0,0,0-.879.879q.321.365.674.7a.922.922,0,0,1-.5,1.494.972.972,0,0,1-.586-.059,9.3,9.3,0,0,1-.908-.85l-.82.82a.073.073,0,0,0,0,.117,4.661,4.661,0,0,1,.82.938q.175,1.319-1.143,1.2a5.634,5.634,0,0,1-1.025-.908.953.953,0,0,1-1.641,0,1.085,1.085,0,0,1,.322-1.289q-.441-.456-.85-.937-.244-1.309,1.084-1.26a4.012,4.012,0,0,1,1.084.908q.441-.426.85-.879-.441-.456-.85-.937-.308-1.36,1.084-1.26a4,4,0,0,1,1.084.908l.908-.908a5.634,5.634,0,0,1-.908-1.025q-.152-1.43,1.26-1.143.482.409.938.85.482-.438.938-.908a3.2,3.2,0,0,1-.908-1.143q0-1.288,1.26-1.025a4.977,4.977,0,0,1,.967.85l.908-.908-.791-.791A.972.972,0,0,1,17.373,8.643Z" transform="translate(60.069 283.029)" fill="#fff" fill-rule="evenodd" opacity="0.963"/>
  </g>
</svg>
