<svg xmlns="http://www.w3.org/2000/svg" width="21.19" height="21.19" viewBox="0 0 21.19 21.19">
  <path id="telegram" d="M10.6.581a10.6,10.6,0,1,0,10.6,10.6A10.6,10.6,0,0,0,10.6.581Zm4.911,7.206c-.159,1.675-.849,5.741-1.2,7.617-.149.794-.441,1.06-.724,1.086-.615.057-1.083-.407-1.678-.8-.933-.611-1.459-.992-2.365-1.588-1.046-.689-.368-1.068.228-1.688.156-.162,2.867-2.628,2.919-2.852a.216.216,0,0,0-.049-.187.245.245,0,0,0-.219-.021q-.14.032-4.469,2.954a2.012,2.012,0,0,1-1.149.424,7.559,7.559,0,0,1-1.647-.39c-.664-.216-1.191-.33-1.145-.7q.036-.286.788-.585Q9.429,9.045,10.975,8.4c2.942-1.224,3.554-1.436,3.952-1.444a.7.7,0,0,1,.411.123.447.447,0,0,1,.151.287A1.87,1.87,0,0,1,15.506,7.786Z" transform="translate(0 -0.581)" fill="#fff"/>
</svg>
