<svg xmlns="http://www.w3.org/2000/svg" xmlns:xlink="http://www.w3.org/1999/xlink" width="70" height="56" viewBox="0 0 70 56">
  <defs>
    <clipPath id="clip-path">
      <rect id="Rectangle_8340" data-name="Rectangle 8340" width="70" height="56" transform="translate(561 4017)" fill="#fff" stroke="#707070" stroke-width="1"/>
    </clipPath>
  </defs>
  <g id="Mask_Group_198" data-name="Mask Group 198" transform="translate(-561 -4017)" clip-path="url(#clip-path)">
    <path id="Path_92" data-name="Path 92" d="M65.881,22.862V27.37a20.7,20.7,0,0,1-9.016,14.619q7.648,2.962,6.762,11.141a9.694,9.694,0,0,1-6.891,7.535Q47.432,62.2,44.5,53.259a26.589,26.589,0,0,1-23.957,4.315,27.112,27.112,0,0,1-3.091-1.224,9.745,9.745,0,0,1-10.24,3.091A9.515,9.515,0,0,1,.322,50.167a9.874,9.874,0,0,1,5.41-8.758,19.887,19.887,0,0,1-5.8-11.463V25.567Q2.2,12.261,15.392,9.274a18.992,18.992,0,0,1,14.232,3.284q8.832-10.113,21.96-6.891A20.455,20.455,0,0,1,64.915,18.612,30.205,30.205,0,0,1,65.881,22.862ZM43.727,6.5h.386A18.98,18.98,0,0,1,40.7,20.028q-4.5-3.57-8.952-7.213A19.116,19.116,0,0,1,43.727,6.5Zm2.061,0a17.948,17.948,0,0,1,10.819,3.542L45.6,23.892q-1.8-1.38-3.542-2.834A21,21,0,0,0,45.788,6.5ZM17.452,10.626a16.782,16.782,0,0,1,6.826,1.095l-.515.644a59.676,59.676,0,0,1-6.569.386,22.524,22.524,0,0,1-2.834-1.546Q15.922,10.849,17.452,10.626Zm40.443.515a9.769,9.769,0,0,1,1.739,1.546,21.337,21.337,0,0,1,4.186,7.921A20.979,20.979,0,0,0,50.1,27.5q-1.6-1.267-3.156-2.576Q52.377,17.991,57.9,11.141Zm-46.11.9a16.42,16.42,0,0,1,4.25,2.125,54.953,54.953,0,0,1-2.061,5.216l-6.7,3.22-4.122-2.19A17.77,17.77,0,0,1,11.785,12.043Zm14.039.258a16.564,16.564,0,0,1,7.728,7.213l-.129.129q-1.666-.759-3.349-1.481l-4.766-5.023A4.978,4.978,0,0,0,25.824,12.3Zm-3.606,1.8a10.935,10.935,0,0,1,1.674.064q2.427,2.41,4.766,4.894-1.022,2.453-1.932,4.959a42.113,42.113,0,0,1-6.311.708L15.842,19.9a38.622,38.622,0,0,1,1.868-5.345Q19.984,14.288,22.218,14.1ZM33.81,16.68q2.935,2.272,5.8,4.637a17.346,17.346,0,0,1-2.576,2.447.47.47,0,0,1-.193-.129A19.42,19.42,0,0,0,33.81,16.68Zm-3.864,3.349q2.334.877,4.637,1.868a13.565,13.565,0,0,1,.9,6.633q-1.845.826-3.735,1.546-1.81-2.619-3.478-5.345Q29.168,22.394,29.946,20.028Zm-15.456.9q2.273,2.5,4.637,4.959-1.653,2.889-3.349,5.732-3.428-.582-6.826-1.288-.5-3.143-.708-6.311Q11.393,22.494,14.49,20.93ZM2.512,22.089q2,.887,3.928,1.932.546,3.466.773,6.955A28.847,28.847,0,0,1,5.474,34.2L2.383,32.779A15.5,15.5,0,0,1,2.512,22.089Zm61.18.129a.421.421,0,0,1,.451.258,18.789,18.789,0,0,1-2.834,12.751,1.184,1.184,0,0,1-.644.644q-4.619-3.614-9.209-7.277A18.62,18.62,0,0,1,63.691,22.218Zm-22.8.129a38.4,38.4,0,0,1,3.606,2.9q-2.861,3.692-5.86,7.277a5.961,5.961,0,0,0-1.739-.644,25.909,25.909,0,0,0,.322-6.182,26.219,26.219,0,0,0,2.383-1.868A6.984,6.984,0,0,0,40.894,22.347ZM25.7,25.824a3.823,3.823,0,0,1,1.352.129l2.769,4.315a28.768,28.768,0,0,0-12.429,2.383,2.539,2.539,0,0,1,.386-1.03q1.473-2.528,2.9-5.088Q23.218,26.223,25.7,25.824Zm20.093.386q1.643,1.352,3.349,2.64A18.927,18.927,0,0,0,45.6,36.772,27.966,27.966,0,0,0,40.25,33.23Q43.09,29.767,45.788,26.211ZM50.3,29.946a2.47,2.47,0,0,1,.644.322q4.435,3.469,8.758,7.084A19.152,19.152,0,0,1,54.16,41.6,10.412,10.412,0,0,0,49.845,42.7a14.377,14.377,0,0,0-2.7-4.379,15.035,15.035,0,0,1,1.288-5.023Q49.318,31.579,50.3,29.946Zm-14.941.386a2.892,2.892,0,0,1,0,.9,3.558,3.558,0,0,1-1.288-.322A7.658,7.658,0,0,0,35.355,30.332ZM8.565,32.007q3.676.634,7.342,1.352a25,25,0,0,0-7.6,6.118Q7.561,37.5,6.891,35.484,7.677,33.718,8.565,32.007Zm17.388,0a28.08,28.08,0,0,1,9.66,1.03q.032,11.463-.064,22.926a23.308,23.308,0,0,1-17.195-1.095,9.626,9.626,0,0,0,.966-7.148q-.129-7.02,0-14.039A25.95,25.95,0,0,1,25.953,32.007Zm11.334,1.674a35.98,35.98,0,0,1,4.057,2.061q.129,8.823,0,17.646a19.519,19.519,0,0,1-4.057,1.932Zm-19.964.773a44.331,44.331,0,0,1,.258,4.83q-.032,2.415-.064,4.83a10.956,10.956,0,0,0-3.928-2.962,24.891,24.891,0,0,1-.064-4.379A34.4,34.4,0,0,1,17.324,34.454ZM6.5,39.735A13.911,13.911,0,0,1,3.22,34.969q1.054.463,2.061,1.03A37.947,37.947,0,0,1,6.5,39.735ZM43.083,36.9a14.831,14.831,0,0,1,5.281,6.633,9.576,9.576,0,0,0-3.928,7.535,8.208,8.208,0,0,1-1.288,1.159Q43.051,44.565,43.083,36.9ZM11.656,38.318a10.509,10.509,0,0,1,.129,2.318q-1.028-.1-2.061-.193Q10.664,39.343,11.656,38.318ZM8.565,42.182a10.536,10.536,0,0,1,4.508.58,3.951,3.951,0,0,1,1.159.708q-.324.394-.644.773a2.382,2.382,0,0,0-.773-.322,12.536,12.536,0,0,0-.9,1.224,5.076,5.076,0,0,0,.773.58q-.379.791-.708,1.61-.345-.143-.708-.258a4.764,4.764,0,0,0-.386,1.674l.773.129a12.678,12.678,0,0,1-.064,1.8,1.965,1.965,0,0,1-.58.193.636.636,0,0,0-.129.322,6.888,6.888,0,0,1,.258,1.288,1.173,1.173,0,0,0,.644-.129,13.3,13.3,0,0,0,.773,1.932,1.354,1.354,0,0,0-.58.644,8.909,8.909,0,0,0,.9,1.159.812.812,0,0,1,.58-.193,10.368,10.368,0,0,1,.708.837q.133.161-.064.258A7.854,7.854,0,0,1,5.6,56.8L6.7,55.706a5.578,5.578,0,0,0,.708.386,9.907,9.907,0,0,0,.837-1.03.322.322,0,0,0,0-.386,4.169,4.169,0,0,1-.58-.386.412.412,0,0,1-.064-.515,10.577,10.577,0,0,0,.515-1.546,1.188,1.188,0,0,0,.966.129l.386-1.288a1.734,1.734,0,0,0-1.159-.386,10.94,10.94,0,0,1,.064-1.674,5,5,0,0,1,1.095-.258,8.046,8.046,0,0,0-.451-1.674q-1.109.739-1.417-.515a1.239,1.239,0,0,1-.129-.773,6.32,6.32,0,0,0,.837-.644,5.228,5.228,0,0,0-.9-1.288,7.324,7.324,0,0,0-.966.644L5.6,43.405A11.012,11.012,0,0,1,8.565,42.182Zm44.307,1.159a23.3,23.3,0,0,1,2.447.064,5.581,5.581,0,0,1,1.868.58,25.09,25.09,0,0,0,.837,7.084,3.272,3.272,0,0,1-2.576,2.64,10.075,10.075,0,0,1-3.091-.129,2.856,2.856,0,0,1-2-3.542,19.708,19.708,0,0,0,.451-5.86.468.468,0,0,1,.258-.258A15.046,15.046,0,0,1,52.872,43.341ZM4.186,44.5a2.41,2.41,0,0,1,.773.837,1.5,1.5,0,0,0-.322.58,8.909,8.909,0,0,0,.9,1.159.6.6,0,0,0,.386-.258,2.884,2.884,0,0,1,.322,1.03H5.732a9.948,9.948,0,0,0,.322,1.546.951.951,0,0,0,.58,0,3.212,3.212,0,0,1-.064.9.322.322,0,0,0-.515,0q-.146.616-.322,1.224a.508.508,0,0,0,.129.258l.644.129-.451,1.352a1.793,1.793,0,0,0-.515-.386,14.056,14.056,0,0,0-.966,1.288,4.1,4.1,0,0,1,.644.58,3.225,3.225,0,0,1-.9.966,7.368,7.368,0,0,1-2.254-4.25A8.336,8.336,0,0,1,3.22,45.788,13.583,13.583,0,0,0,4.186,44.5Zm11.334.129a3.092,3.092,0,0,1,1.352,1.417,8.313,8.313,0,0,1-.258,8.63,4.707,4.707,0,0,1-.837.966,1.439,1.439,0,0,1-.9-.708,2.543,2.543,0,0,1,.708-.644.322.322,0,0,0,0-.386,9.9,9.9,0,0,0-.837-1.03,6.577,6.577,0,0,0-.708.515,4.441,4.441,0,0,1-.58-1.352,11.846,11.846,0,0,0,1.159-.386,7.509,7.509,0,0,1-.386-1.481L13.2,50.3q-.179-1.161.9-.773a4.765,4.765,0,0,0,.386-1.674q-1.311-.14-.322-1.159a4.169,4.169,0,0,1,.58.386,2.074,2.074,0,0,0,.837-1.417,1.564,1.564,0,0,1-.58-.451A3.238,3.238,0,0,0,15.52,44.629Zm43.277.258a7.912,7.912,0,0,1,2.769,9.4q-2.856,5.877-9.338,4.83-6.72-2.265-5.989-9.338A8.231,8.231,0,0,1,49.2,45.015a6.34,6.34,0,0,1,0,1.8q-.321,2.09-.58,4.186a4.569,4.569,0,0,0,3.478,4.25A9.539,9.539,0,0,0,56.865,55a4.212,4.212,0,0,0,2.64-4.83A31.225,31.225,0,0,1,58.8,44.887Z" transform="translate(563.092 4012.111)" fill="#02263c" fill-rule="evenodd" opacity="0.912"/>
    <path id="Path_93" data-name="Path 93" d="M22.347,42.311h1.674v1.417H25.18V42.311h1.674v1.417h1.159V42.311h1.674v1.417h.9V42.311h1.546v1.417h1.288V45.4H32.136V46.69H30.59V45.4h-.9V46.69H28.014V45.4H26.855V46.69H25.18V45.4H24.021V46.69H22.347V45.4H21.188V43.727h1.159Z" transform="translate(563.092 4012.111)" fill="#02263c" fill-rule="evenodd" opacity="0.917"/>
  </g>
</svg>
