<svg xmlns="http://www.w3.org/2000/svg" width="21.19" height="17.21" viewBox="0 0 21.19 17.21">
  <path id="twitter" d="M19.012,7.67c.013.188.013.377.013.565A12.272,12.272,0,0,1,6.669,20.591,12.273,12.273,0,0,1,0,18.642a8.984,8.984,0,0,0,1.049.054A8.7,8.7,0,0,0,6.44,16.84,4.351,4.351,0,0,1,2.38,13.828a5.477,5.477,0,0,0,.82.067,4.593,4.593,0,0,0,1.143-.148A4.344,4.344,0,0,1,.86,9.485V9.431a4.374,4.374,0,0,0,1.963.551A4.349,4.349,0,0,1,1.479,4.174a12.345,12.345,0,0,0,8.955,4.545,4.9,4.9,0,0,1-.108-.995,4.347,4.347,0,0,1,7.516-2.972A8.551,8.551,0,0,0,20.6,3.7,4.331,4.331,0,0,1,18.689,6.1a8.706,8.706,0,0,0,2.5-.672A9.336,9.336,0,0,1,19.012,7.67Z" transform="translate(0 -3.381)" fill="#fff"/>
</svg>
