<svg xmlns="http://www.w3.org/2000/svg" width="21.19" height="14.899" viewBox="0 0 21.19 14.899">
  <path id="youtube" d="M21.732,6.55a2.663,2.663,0,0,0-1.873-1.886c-1.653-.446-8.279-.446-8.279-.446s-6.626,0-8.279.446A2.663,2.663,0,0,0,1.427,6.55a27.932,27.932,0,0,0-.443,5.134,27.932,27.932,0,0,0,.443,5.134A2.623,2.623,0,0,0,3.3,18.673c1.653.446,8.279.446,8.279.446s6.626,0,8.279-.446a2.623,2.623,0,0,0,1.873-1.855,27.932,27.932,0,0,0,.443-5.134A27.932,27.932,0,0,0,21.732,6.55ZM9.412,14.834v-6.3l5.538,3.151L9.412,14.834Z" transform="translate(-0.984 -4.219)" fill="#fff"/>
</svg>
